<svg width="69" height="95" viewBox="0 0 69 95" fill="none" xmlns="http://www.w3.org/2000/svg">
<rect x="2" y="2" width="65" height="91" rx="32.5" stroke="#F3F3F3" style="stroke:#F3F3F3;stroke:color(display-p3 0.9542 0.9542 0.9542);stroke-opacity:1;" stroke-width="4"/>
<path d="M38.1123 37.1641C38.5907 36.7874 39.295 36.8139 39.7412 37.2441L39.8184 37.3262C40.1791 37.7454 40.193 38.3502 39.8594 38.7842L39.8555 38.79L39.7471 38.9111L39.7422 38.916L39.6719 38.8438L39.7412 38.916L30.8457 47.5L39.7412 56.084L39.8184 56.165C40.1794 56.5843 40.1931 57.189 39.8594 57.623L39.8555 57.6289L39.7471 57.75L39.7422 57.7559L39.6719 57.6836L39.7412 57.7559C39.3083 58.1733 38.6327 58.2103 38.1562 57.8691L38.1504 57.8652L38.0254 57.7607L38.0195 57.7559L28.2588 48.3359C27.8245 47.9168 27.7847 47.2589 28.1406 46.7959L28.1445 46.79L28.2529 46.6699L28.2578 46.6641L28.3281 46.7363L28.2588 46.6641L38.0195 37.2441L38.1123 37.1641Z" fill="black" stroke="black" style="fill:black;fill-opacity:1;stroke:black;stroke-opacity:1;" stroke-width="0.2"/>
</svg>
